<?xml version="1.0"?>
<svg xmlns="http://www.w3.org/2000/svg" viewBox="0 0 16 16">
    <path d="M 8 1 C 6.099 1 4.7583906 1.4667344 3.9003906 2.4277344 C 3.0623906 3.3677344 2.7394375 4.7117187 2.8984375 6.6367188 C 2.3684375 6.8677187 2 7.396 2 8 C 2 8.796 2.599 10 3.5 10 C 3.579 10 3.6611406 9.9934219 3.7441406 9.9824219 C 4.4751406 12.262422 6.291 14 8 14 C 9.688 14 11.484906 12.296422 12.253906 9.9824219 C 12.337906 9.9924219 12.421 10 12.5 10 C 13.401 10 14 8.796 14 8 C 14 7.397 13.633469 6.8706719 13.105469 6.6386719 C 13.206469 5.5266719 13.1945 3.4566719 11.3125 2.5136719 L 12.054688 1.015625 L 11.251953 1.0117188 C 11.251953 1.0117188 8.174 1 8 1 z M 8 2 C 8.116 2 9.5213125 2.0048125 10.445312 2.0078125 L 10.128906 2.6484375 C 10.040449 2.864824 9.0745055 5 5 5 L 5 6 C 8.8460321 6 10.34366 4.2566029 10.851562 3.4101562 C 11.93031 3.942622 12.299133 5.028033 12.064453 6.953125 L 12.001953 7.4785156 L 12.529297 7.5117188 C 12.797297 7.5277187 13 7.738 13 8 C 13 8.411 12.66 8.979 12.5 9 C 12.42 9 12.254344 8.9798281 12.027344 8.9238281 L 11.560547 8.8085938 L 11.392578 9.3710938 C 10.816578 11.541094 9.173 13 8 13 C 6.824 13 5.182375 11.542 4.609375 9.375 L 4.4414062 8.8046875 L 3.9746094 8.9238281 C 3.7466094 8.9798281 3.5809531 9 3.5019531 9 C 3.3409531 8.979 3 8.411 3 8 C 3 7.738 3.2027031 7.5277188 3.4707031 7.5117188 L 3.9960938 7.4785156 L 3.9355469 6.9550781 C 3.7235469 5.1010781 3.9494844 3.87475 4.6464844 3.09375 C 5.3034844 2.35675 6.4 2 8 2 z M 6.5 7 A 0.5 0.5 0 0 0 6 7.5 A 0.5 0.5 0 0 0 6.5 8 A 0.5 0.5 0 0 0 7 7.5 A 0.5 0.5 0 0 0 6.5 7 z M 9.5 7 A 0.5 0.5 0 0 0 9 7.5 A 0.5 0.5 0 0 0 9.5 8 A 0.5 0.5 0 0 0 10 7.5 A 0.5 0.5 0 0 0 9.5 7 z"/>
</svg>
